<svg xmlns="http://www.w3.org/2000/svg" width="100" height="100" viewBox="0 0 100 100">
  <g id="job_w" transform="translate(-790 -2406)">
    <rect id="Rectangle_6" data-name="Rectangle 6" width="100" height="100" transform="translate(790 2406)" fill="#fff" opacity="0"/>
    <path id="businessman" d="M97.774,62.275H88.1V57.436A4.845,4.845,0,0,0,83.258,52.6H67.129a4.817,4.817,0,0,0-3.521,1.54L46.161,51.231V47.189a16.124,16.124,0,0,0,8.065-13.947h1.613a4.839,4.839,0,0,0,0-9.677h-.774l.884-2.05A13.026,13.026,0,0,0,49.385,4.5l-4.5-2.05a16.537,16.537,0,0,0-16.5,1.79L25.839,6.146l0,0a10.034,10.034,0,0,0-6.473,14.211l1.6,3.2h-.616a4.839,4.839,0,0,0,0,9.677h1.613a16.124,16.124,0,0,0,8.065,13.947v4.042L10.434,54.5A11.254,11.254,0,0,0,1,65.634V99.372a1.612,1.612,0,0,0,1.613,1.613H97.774A3.229,3.229,0,0,0,101,97.759V65.5A3.229,3.229,0,0,0,97.774,62.275Zm-12.9-4.839v4.839H74.658a11.3,11.3,0,0,0-5.224-6.452H83.258A1.615,1.615,0,0,1,84.871,57.436Zm-19.355.315a8.057,8.057,0,0,1,5.694,4.524H65.516ZM57.452,28.4a1.616,1.616,0,0,1-1.613,1.613H54.226V26.791h1.613A1.616,1.616,0,0,1,57.452,28.4ZM22.506,12.36a6.858,6.858,0,0,1,5.848-3.311,7.538,7.538,0,0,1,6.281,3.36l.506.76,2.684-1.789-.506-.76a10.742,10.742,0,0,0-6.084-4.394,13.256,13.256,0,0,1,12.311-.844l4.5,2.05a9.8,9.8,0,0,1,4.939,12.8l-.108.252-2.048-4.1a1.614,1.614,0,0,0-2.411-.569l-2.581,1.935a12.9,12.9,0,0,1-15.484,0l-2.581-1.935a1.614,1.614,0,0,0-2.411.569l-2.185,4.373-.923-1.845a6.789,6.789,0,0,1,.252-6.56ZM20.355,30.017a1.613,1.613,0,1,1,0-3.226h1.613v3.226Zm4.839,3.226v-9.3l2.19-4.382,1.035.776a16.129,16.129,0,0,0,19.355,0l1.035-.776L51,23.946v9.3a12.9,12.9,0,1,1-25.806,0ZM38.1,49.372a16.055,16.055,0,0,0,4.839-.744v3.3L38.1,56.768,33.258,51.93v-3.3A16.055,16.055,0,0,0,38.1,49.372Zm-.521,17.742h1.042l2.632,6.581L38.1,87.36,34.944,73.694Zm3.579-6.689-2.308,3.463h-1.5l-2.31-3.463.539-1.615,1.381,1.381a1.614,1.614,0,0,0,2.281,0l1.381-1.381Zm-20.8,37.334V70.339H17.129V97.759H4.226V65.634a8.042,8.042,0,0,1,6.739-7.956l20.127-3.353,1.934,1.934-1.3,3.894a1.607,1.607,0,0,0,.189,1.4l2.755,4.132L31.76,72.967a1.619,1.619,0,0,0-.074.961L36.524,94.9a1.614,1.614,0,0,0,3.145,0l4.839-20.968a1.621,1.621,0,0,0-.074-.961l-2.911-7.277,2.755-4.132a1.617,1.617,0,0,0,.189-1.4l-1.3-3.894L45.1,54.325l17.213,2.868c0,.082-.024.16-.024.244v4.839H52.613A3.229,3.229,0,0,0,49.387,65.5V97.759Zm33.871,0H52.613V94.533H97.776v3.226Zm43.55-6.452H52.613V78.225a11.247,11.247,0,0,0,8.065,3.4h9.677v1.613a4.839,4.839,0,0,0,9.677,0V81.63H89.71a11.258,11.258,0,0,0,8.066-3.4Zm-24.2-8.065V75.178h3.226v8.065a1.613,1.613,0,1,1-3.226,0Zm24.194-12.9A8.074,8.074,0,0,1,89.71,78.4H80.032V73.565a1.612,1.612,0,0,0-1.613-1.613H71.968a1.612,1.612,0,0,0-1.613,1.613V78.4H60.677a8.074,8.074,0,0,1-8.065-8.065V65.5H97.774Z" transform="translate(789 2404.975)" fill="#fff"/>
  </g>
</svg>
