<svg xmlns="http://www.w3.org/2000/svg" width="100.268" height="100" viewBox="0 0 100.268 100">
  <g id="property" transform="translate(-550 -2406)">
    <g id="house" transform="translate(550 2382.52)">
      <g id="Group_2" data-name="Group 2" transform="translate(64.524 84.228)">
        <g id="Group_1" data-name="Group 1">
          <path id="Path_1" data-name="Path 1" d="M351.35,309.041H330.964a1.486,1.486,0,0,0-1.486,1.486v17.9a1.486,1.486,0,0,0,1.486,1.486h20.386a1.486,1.486,0,0,0,1.486-1.486v-17.9A1.486,1.486,0,0,0,351.35,309.041Zm-1.486,17.9H332.45v-9.49h17.414Zm0-12.462H332.45v-2.468h17.414Z" transform="translate(-329.478 -309.041)" fill="brown"/>
        </g>
      </g>
      <g id="Group_4" data-name="Group 4" transform="translate(0 29.48)">
        <g id="Group_3" data-name="Group 3">
          <path id="Path_2" data-name="Path 2" d="M98.782,106.559H92.04V93.845a1.486,1.486,0,1,0-2.972,0v12.714H66.01a1.486,1.486,0,0,0-1.486,1.486v7.184H62.3V85.715a1.486,1.486,0,0,0-1.486-1.486H42.91a1.486,1.486,0,0,0-1.486,1.486v29.515h-1.33v-7.184a1.486,1.486,0,0,0-1.486-1.486h-.852V81.027L63.411,56.533l25.656,24.5v5.881a1.486,1.486,0,0,0,2.972,0V83.866l1.248,1.191a1.486,1.486,0,0,0,1.982.063l4.289-3.6a1.556,1.556,0,0,0,.459-.617,1.488,1.488,0,0,0-.357-1.625L92.328,72.3V53.087A1.486,1.486,0,0,0,90.842,51.6H77.271a1.486,1.486,0,0,0-1.486,1.486v3.455l-9.208-8.769-2.155-2a1.486,1.486,0,0,0-2.023,0l-2.168,2.014L44.311,62.947c-.112-11.3-3.877-21.785-9.968-27.921a1.486,1.486,0,0,0-2.1,2.106c5.641,5.675,9.1,15.6,9.1,26.333,0,.792-.024,1.583-.061,2.366L27.162,79.279a1.488,1.488,0,0,0-.357,1.625,1.557,1.557,0,0,0,.459.617l4.288,3.6a1.486,1.486,0,0,0,1.982-.063l1.249-1.192v2.883c-3.516,4.988-7.986,7.729-12.625,7.729-5,0-9.741-3.136-13.363-8.83-3.755-5.9-5.823-13.781-5.823-22.182S5.041,47.186,8.8,41.283c3.622-5.694,8.368-8.83,13.363-8.83a12.33,12.33,0,0,1,5.1,1.126,1.478,1.478,0,0,0,1.887-.627h0a1.488,1.488,0,0,0-.682-2.091,15.257,15.257,0,0,0-6.308-1.381c-6.048,0-11.684,3.625-15.871,10.207C2.233,46.061,0,54.5,0,63.464s2.233,17.4,6.287,23.777c2.822,4.437,6.3,7.527,10.124,9.072v10.245H11.89v-2.211a1.528,1.528,0,0,0-1.441-1.548,1.486,1.486,0,0,0-1.532,1.486v2.274h-1.8v-2.211A1.528,1.528,0,0,0,5.675,102.8a1.486,1.486,0,0,0-1.532,1.486v2.274H1.486A1.486,1.486,0,0,0,0,108.046v8.67A1.486,1.486,0,0,0,1.486,118.2h97.3a1.486,1.486,0,0,0,1.486-1.486v-8.67A1.486,1.486,0,0,0,98.782,106.559ZM78.757,54.573h10.6V69.466l-10.6-10.094ZM32.444,81.988l-2.029-1.7L62.268,49.95l1.143-1.062,1.13,1.049L96.407,80.285l-2.029,1.7L64.437,53.4a1.486,1.486,0,0,0-2.052,0Zm-4.539,14.32a19.731,19.731,0,0,0,6.878-4.862v15.112H32.83v-2.274a1.486,1.486,0,0,0-2.972,0v2.274H27.905Zm-8.521.882a14.927,14.927,0,0,0,5.548,0v9.372H19.384Zm17.738,18.039H2.972v-5.7h34.15v5.7Zm22.2,0H44.4V87.2h14.93Zm37.969,0H67.5v-5.7H97.3v5.7Z" transform="translate(0 -29.48)" fill="brown"/>
        </g>
      </g>
      <g id="Group_6" data-name="Group 6" transform="translate(53.2 99.629)">
        <g id="Group_5" data-name="Group 5">
          <path id="Path_3" data-name="Path 3" d="M275.742,387.684h-2.6a1.486,1.486,0,1,0,0,2.972h2.6a1.486,1.486,0,1,0,0-2.972Z" transform="translate(-271.657 -387.684)" fill="brown"/>
        </g>
      </g>
      <g id="Group_8" data-name="Group 8" transform="translate(56.945 65.415)">
        <g id="Group_7" data-name="Group 7" transform="translate(0 0)">
          <path id="Path_4" data-name="Path 4" d="M297.243,212.975a6.467,6.467,0,1,0,6.467,6.467A6.474,6.474,0,0,0,297.243,212.975Zm0,9.961a3.494,3.494,0,1,1,3.495-3.494A3.5,3.5,0,0,1,297.243,222.936Z" transform="translate(-290.776 -212.975)" fill="brown"/>
        </g>
      </g>
    </g>
    <rect id="Rectangle_4" data-name="Rectangle 4" width="100" height="100" transform="translate(550 2406)" fill="#fff" opacity="0"/>
  </g>
</svg>
