<svg xmlns="http://www.w3.org/2000/svg" width="100" height="100" viewBox="0 0 100 100">
  <g id="transport" transform="translate(-670 -2406)">
    <g id="car-rental" transform="translate(670 2394.383)">
      <g id="Page-1_71_" transform="translate(0 26.617)">
        <g id="_x30_72---Rental-Car" transform="translate(0 0)">
          <path id="Shape_215_" d="M212.192,386.1H176.287a3.556,3.556,0,0,0-2.275,6.288l5.364,4.467a3.569,3.569,0,0,0,2.277.827h25.173a3.57,3.57,0,0,0,2.277-.827l5.364-4.467a3.556,3.556,0,0,0-2.275-6.288Zm.165,3.746-5.363,4.467a.262.262,0,0,1-.165.058H181.656a.253.253,0,0,1-.165-.058l-5.364-4.467a.247.247,0,0,1,.164-.437H212.2a.247.247,0,0,1,.165.437Z" transform="translate(-144.602 -353.003)" fill="brown"/>
          <path id="Shape_214_" d="M453.723,386.922l-5.381,4.467a3.553,3.553,0,0,0,2.275,6.288H463.6a3.309,3.309,0,0,0,3.309-3.309V389.4a3.309,3.309,0,0,0-3.309-3.309H456a3.573,3.573,0,0,0-2.277.827Zm9.88,2.482v4.964H450.617a.218.218,0,0,1-.233-.165.215.215,0,0,1,.074-.268l5.383-4.477a.245.245,0,0,1,.165-.056Z" transform="translate(-374.253 -353.003)" fill="brown"/>
          <path id="Shape_213_" d="M53.83,386.922a3.574,3.574,0,0,0-2.269-.827H43.95a3.309,3.309,0,0,0-3.309,3.309v4.964a3.309,3.309,0,0,0,3.309,3.309H56.932a3.552,3.552,0,0,0,2.277-6.288Zm3.339,7.28a.218.218,0,0,1-.233.165H43.95V389.4h7.611a.245.245,0,0,1,.165.056l5.384,4.479A.214.214,0,0,1,57.169,394.2Z" transform="translate(-34.023 -353.003)" fill="brown"/>
          <g id="Group_9" data-name="Group 9" transform="translate(8.273 49.639)">
            <path id="Path_174_" d="M64.039,487.7H52.457a1.655,1.655,0,0,0,0,3.309H64.039a1.655,1.655,0,0,0,0-3.309Z" transform="translate(-50.802 -487.698)" fill="brown" fill-rule="evenodd"/>
            <path id="Path_173_" d="M480.615,487.7H469.033a1.655,1.655,0,0,0,0,3.309h11.582a1.655,1.655,0,1,0,0-3.309Z" transform="translate(-399.538 -487.698)" fill="brown" fill-rule="evenodd"/>
            <path id="Path_172_" d="M234.646,487.7H204.863a1.655,1.655,0,0,0,0,3.309h29.783a1.655,1.655,0,1,0,0-3.309Z" transform="translate(-178.389 -487.698)" fill="brown" fill-rule="evenodd"/>
          </g>
          <path id="Shape_212_" d="M99.278,201.089a4.964,4.964,0,0,0-4.964-4.964H91a4.932,4.932,0,0,0-3.743,1.739l-3.107-9.319a8.262,8.262,0,0,0-7.848-5.657H22.971a8.262,8.262,0,0,0-7.848,5.657l-3.107,9.319a4.933,4.933,0,0,0-3.743-1.739H4.964a4.964,4.964,0,0,0,0,9.928H7.588l-6.134,6.134A4.927,4.927,0,0,0,0,215.7V237.49a4.964,4.964,0,0,0,3.309,4.659v5.268a4.964,4.964,0,0,0,4.964,4.964H19.855a4.964,4.964,0,0,0,4.964-4.964v-4.964H74.458v4.964a4.964,4.964,0,0,0,4.964,4.964H91a4.964,4.964,0,0,0,4.964-4.964V242.15a4.964,4.964,0,0,0,3.309-4.659V215.7a4.927,4.927,0,0,0-1.454-3.509l-6.134-6.134h2.624A4.964,4.964,0,0,0,99.278,201.089Zm-81.016-11.5a4.964,4.964,0,0,1,4.709-3.4H76.306a4.964,4.964,0,0,1,4.709,3.4L85.4,202.743H13.879Zm-13.3,13.151a1.655,1.655,0,0,1,0-3.309H8.273a1.655,1.655,0,0,1,1.655,1.655v1.655ZM21.51,247.418a1.655,1.655,0,0,1-1.655,1.655H8.273a1.655,1.655,0,0,1-1.655-1.655v-4.964H21.51Zm71.149,0A1.655,1.655,0,0,1,91,249.073H79.422a1.655,1.655,0,0,1-1.655-1.655v-4.964H92.659Zm2.824-32.892a1.67,1.67,0,0,1,.485,1.17V237.49a1.655,1.655,0,0,1-1.655,1.655H4.964a1.655,1.655,0,0,1-1.655-1.655V215.7a1.669,1.669,0,0,1,.485-1.17l8.473-8.473H87.01ZM89.35,202.743v-1.655A1.655,1.655,0,0,1,91,199.434h3.309a1.655,1.655,0,0,1,0,3.309Z" transform="translate(0 -182.888)" fill="brown"/>
        </g>
      </g>
    </g>
    <rect id="Rectangle_5" data-name="Rectangle 5" width="100" height="100" transform="translate(670 2406)" fill="#fff" opacity="0"/>
  </g>
</svg>
